<svg class="svg-kolibri-logo" viewBox="0 0 131 35">
  <g class="g-kolibri-logo" stroke="none" stroke-width="1" fill="none" fill-rule="evenodd">
    <path fill="#000000" d="M13.6011905,7.77534226 L5,16.3765327 C8.54166667,19.9181994 14.2559524,19.9181994 17.797619,16.3765327 L23.2142857,10.9598661 C23.422619,10.7515327 23.75,10.7515327 23.9583333,10.9598661 C24.1666667,11.1681994 24.1666667,11.4955804 23.9583333,11.7039137 L18.5119048,17.1205804 C14.9702381,20.662247 14.9702381,26.3765327 18.5119048,29.9181994 L18.5119048,29.9181994 L27.1130952,21.3170089 C30.8333333,17.5967708 30.8333333,11.5253423 27.1130952,7.80510417 C23.3928571,4.08486607 17.3511905,4.05510417 13.6011905,7.77534226 L13.6011905,7.77534226 L13.6011905,7.77534226 Z"></path>
    <path fill="#000000" d="M52.1940299,29.9103896 L44.7910448,19.4558442 L41,23.6974026 L41,29.9103896 L37,29.9103896 L37,7 L41,7 L41,18.4402597 L51.2089552,7 L56.0447761,7 L47.5671642,16.5285714 L56.9701493,29.9103896 L52.1940299,29.9103896 L52.1940299,29.9103896 Z"></path>
    <path fill="#000000" d="M65.5301587,14.8301587 C68.6666667,14.8301587 71.2301587,17.3936508 71.2301587,20.5301587 C71.2301587,23.6666667 68.6666667,26.2301587 65.5301587,26.2301587 C62.3936508,26.2301587 59.8301587,23.6666667 59.8301587,20.5301587 C59.8301587,17.3936508 62.3634921,14.8301587 65.5301587,14.8301587 L65.5301587,14.8301587 Z M65.5301587,11 C60.252381,11 56,15.252381 56,20.5301587 C56,25.8079365 60.252381,30.0603175 65.5301587,30.0603175 C70.8079365,30.0603175 75.0603175,25.8079365 75.0603175,20.5301587 C75.0603175,15.252381 70.7777778,11 65.5301587,11 L65.5301587,11 L65.5301587,11 Z"></path>
    <path fill="#000000" d="M77,5 L81,5 L81,30 L77,30 L77,5 Z"></path>
    <path fill="#000000" d="M86,9.46428571 C87.2426407,9.46428571 88.25,8.46492132 88.25,7.23214286 C88.25,5.9993644 87.2426407,5 86,5 C84.7573593,5 83.75,5.9993644 83.75,7.23214286 C83.75,8.46492132 84.7573593,9.46428571 86,9.46428571 Z M84,30 L84,12 L88,12 L88,29.9702479 L84,29.9702479 L84,30 Z"></path>
    <path fill="#000000" d="M95,13.1340476 L95,5 L91,5 L91,30 L95,30 L95,28.3135714 C96.4285714,29.5230952 98.4190476,30.2790476 100.590476,30.2790476 C105.868254,30.2790476 110,26.0154762 110,20.7238095 C110,15.4321429 105.838095,11.1685714 100.590476,11.1685714 C98.4190476,11.1685714 96.4285714,11.8942857 95,13.1340476 Z M100.590476,26.4690476 C97.4539683,26.4690476 94.8904762,23.8988095 94.8904762,20.7540476 C94.8904762,17.6092857 97.4539683,15.0390476 100.590476,15.0390476 C103.726984,15.0390476 106.290476,17.6092857 106.290476,20.7540476 C106.290476,23.8988095 103.726984,26.4690476 100.590476,26.4690476 L100.590476,26.4690476 Z"></path>
    <path fill="#000000" d="M112,30 L115.8115,30 L115.8115,18.93 C115.8115,17.19 117.23325,15.78 118.98775,15.78 L118.98775,12 C115.11575,12 112,15.12 112,18.93 L112,30 Z"></path>
    <path fill="#000000" d="M124,9.46428571 C125.242641,9.46428571 126.25,8.46492132 126.25,7.23214286 C126.25,5.9993644 125.242641,5 124,5 C122.757359,5 121.75,5.9993644 121.75,7.23214286 C121.75,8.46492132 122.757359,9.46428571 124,9.46428571 Z M122,30 L122,12 L126,12 L126,29.9702479 L122,29.9702479 L122,30 Z" id="Oval" fill="#000000" sketch:type="MSShapeGroup"></path>
  </g>
</svg>
