<svg class="svg-feather" viewBox="0 0 22 30" version="1.1" xmlns="http://www.w3.org/2000/svg" xmlns:xlink="http://www.w3.org/1999/xlink">
  <g class="g-feather" stroke="none" stroke-width="1" fill="none" fill-rule="evenodd">
    <path fill="#000000" d="M1.86421195,29.3899519 C2.10080179,28.6389598 2.39160602,27.7249374 2.73663297,26.6478569 C3.08165955,25.5707778 3.49075699,24.2812626 3.96393856,22.77928 C6.01438279,22.4433103 7.60148414,22.2506235 8.72528425,22.2012158 C9.84908436,22.151808 11.061592,20.9611083 12.3628374,18.6290823 C11.2981807,18.9452904 10.2631146,18.7921306 9.25760883,18.1695952 C8.25210307,17.5470637 7.77892945,17.0282956 7.83807663,16.6132721 C7.87750934,16.4156411 8.22745999,16.3069486 8.88793993,16.2871832 C9.54841987,16.2674216 10.3616831,16.1488446 11.32776,15.931452 C12.2938368,15.7140632 13.3338277,15.308928 14.4477744,14.7160389 C15.5617173,14.1231497 16.601712,13.1547791 17.5677888,11.8109005 C15.1624577,12.3445012 13.5359237,12.2506261 12.688145,11.529279 C11.8403663,10.807932 11.5643487,10.3583333 11.8600845,10.1804676 C12.2149676,9.98283665 12.7226453,9.844498 13.3831252,9.76544408 C14.0436052,9.68639396 14.7533637,9.58264187 15.5124235,9.45418021 C16.2714834,9.32572234 17.030528,9.13303554 17.7895879,8.87611981 C18.5486477,8.61920029 19.2041877,8.21406511 19.7562305,7.6607029 C20.3279916,7.0875791 20.7370894,6.25754717 20.9835353,5.17058432 C21.229985,4.08362147 21.2349137,3.29311649 20.998325,2.79904282 C20.7025853,2.20615365 19.879461,1.5737489 18.5289295,0.901809616 C17.1783941,0.229870328 16.0201088,-0.0665685657 15.054032,0.0124815529 C14.5808508,0.0520085094 14.0534624,0.452199498 13.4718441,1.21307349 C12.8902296,1.97394748 12.3283371,2.80397942 11.7861515,3.70319207 C11.2439659,4.60240851 10.7461492,5.41761547 10.2926825,6.14884709 C9.83921956,6.88007491 9.50405476,7.23580234 9.28718431,7.21604076 C8.83371758,7.19627539 8.6069899,6.53916867 8.6069899,5.24469404 C8.6069899,3.95022321 8.99144086,2.58165784 9.76036171,1.13896377 C8.95201193,1.49469499 7.94158891,2.1567459 6.72906615,3.12512788 C5.51654338,4.09351365 4.67370466,5.06188424 4.20052726,6.03027001 C3.76677878,6.91960187 3.53019084,8.03619191 3.49075927,9.38007049 C3.45132769,10.7239491 3.4759719,12.0282855 3.56469342,13.293114 C3.65341305,14.5579424 3.74706432,15.6597113 3.84564421,16.5984509 C3.94422031,17.5371905 3.91464861,18.036197 3.75692155,18.0954855 C3.59919487,18.1745356 3.36753743,18.011495 3.06194206,17.606356 C2.75634706,17.2012133 2.44089861,16.6972664 2.11558726,16.0944964 C1.79027628,15.4917265 1.47482784,14.8593217 1.16923246,14.1972632 C0.863637458,13.5352047 0.631980024,12.9670289 0.474253341,12.4927168 C0.060221034,13.9156493 -0.0827165464,15.3682052 0.0454363222,16.8504262 C0.173589191,18.3326472 0.848845933,20.0124727 2.07122707,21.8899519 C1.59804739,23.1350188 1.23823876,24.3899475 0.991790933,25.6547721 C0.745343487,26.9196025 0.60240568,27.9176162 0.562974103,28.6488452 C0.543258126,29.2219705 0.730555747,29.5727576 1.12487227,29.7012167 C1.51918878,29.8296759 1.76563282,29.725922 1.86421195,29.3899519 L1.86421195,29.3899519 Z"></path>
  </g>
</svg>
