<svg class="svg-reload" viewBox="0 0 24 18">
  <g class="g-reload" stroke="none" stroke-width="1" fill="none" fill-rule="evenodd">
    <path fill="#000000" d="M18.3374699,2.60965701 C16.7109266,0.996487888 14.4718344,0 12,0 C7.36744635,0 3.55237307,3.50004954 3.05492878,8 L3.05492878,8 L6.08295844,8 C6.55903653,5.16228666 9.02700371,3 12,3 C13.8185288,3 15.4480984,3.80903053 16.5484201,5.08680288 L18.3374699,2.60965701 L18.3374699,2.60965701 Z M20.9450712,10 C20.4476269,14.4999505 16.6325537,18 12,18 C9.52816558,18 7.28907338,17.0035121 5.66253006,15.390343 L7.45157986,12.9131971 C8.55190156,14.1909695 10.1814712,15 12,15 C14.9729963,15 17.4409635,12.8377133 17.9170416,10 L20.9450712,10 L20.9450712,10 Z M15,10 L24,10 L19.5,4 L15,10 Z M0,8 L9,8 L4.49999999,14 L0,8 Z"></path>
  </g>
</svg>
