<svg class="svg-location" viewBox="0 0 13 20">
  <g class="g-location" stroke="none" stroke-width="1" fill="none" fill-rule="evenodd">
    <path fill="#000000" d="M0,6.66666667 C0,7.84722222 0.293402778,8.98148148 0.835069444,9.93055556 L6.13888889,19.7916667 C6.20659722,19.9074074 6.34201389,20 6.5,20 C6.63541667,20 6.79340278,19.9074074 6.86111111,19.7916667 L12.1649306,9.93055556 C12.6840278,8.98148148 13,7.84722222 13,6.66666667 C13,2.98611111 10.0885417,0 6.5,0 C2.91145833,0 0,2.98611111 0,6.66666667 Z M6.66499996,9.16437495 C5.2764583,9.16437495 4.16562498,8.05354162 4.16562498,6.66499996 C4.16562498,5.2764583 5.2764583,4.16562498 6.66499996,4.16562498 C8.05354162,4.16562498 9.16437495,5.2764583 9.16437495,6.66499996 C9.16437495,8.05354162 8.05354162,9.16437495 6.66499996,9.16437495 L6.66499996,9.16437495 Z"></path>
  </g>
</svg>
