<?xml version="1.0" encoding="UTF-8" standalone="no"?>
<svg width="26px" height="6px" viewBox="0 0 26 6" version="1.1" xmlns="http://www.w3.org/2000/svg" xmlns:xlink="http://www.w3.org/1999/xlink" xmlns:sketch="http://www.bohemiancoding.com/sketch/ns">
    <!-- Generator: Sketch 3.3.3 (12072) - http://www.bohemiancoding.com/sketch -->
    <title>svg-edit</title>
    <desc>Created with Sketch.</desc>
    <defs></defs>
    <g id="Page-1" stroke="none" stroke-width="1" fill="none" fill-rule="evenodd" sketch:type="MSPage">
        <path d="M3,6 C4.65685425,6 6,4.65685425 6,3 C6,1.34314575 4.65685425,0 3,0 C1.34314575,0 0,1.34314575 0,3 C0,4.65685425 1.34314575,6 3,6 Z M13,6 C14.6568542,6 16,4.65685425 16,3 C16,1.34314575 14.6568542,0 13,0 C11.3431458,0 10,1.34314575 10,3 C10,4.65685425 11.3431458,6 13,6 Z M23,6 C24.6568542,6 26,4.65685425 26,3 C26,1.34314575 24.6568542,0 23,0 C21.3431458,0 20,1.34314575 20,3 C20,4.65685425 21.3431458,6 23,6 Z" id="Dot" fill="#000000" sketch:type="MSShapeGroup"></path>
    </g>
</svg>