<svg class="svg-remove" viewBox="0 0 20 20">
  <g class="g-remove" stroke="none" stroke-width="1" fill="none" fill-rule="evenodd">
    <path fill="#000000" d="M11.5713484,10 L13.928371,7.6429774 L12.3570226,6.07162899 L10,8.4286516 L7.6429774,6.07162899 L6.07162899,7.6429774 L8.4286516,10 L6.07162899,12.3570226 L7.6429774,13.928371 L10,11.5713484 L12.3570226,13.928371 L13.928371,12.3570226 L11.5713484,10 Z M10,20 C15.5228475,20 20,15.5228475 20,10 C20,4.4771525 15.5228475,0 10,0 C4.4771525,0 0,4.4771525 0,10 C0,15.5228475 4.4771525,20 10,20 Z M10,17.7777778 C14.2955481,17.7777778 17.7777778,14.2955481 17.7777778,10 C17.7777778,5.70445195 14.2955481,2.22222222 10,2.22222222 C5.70445195,2.22222222 2.22222222,5.70445195 2.22222222,10 C2.22222222,14.2955481 5.70445195,17.7777778 10,17.7777778 Z"></path>
  </g>
</svg>
