<svg class="svg-dots" viewBox="0 0 26 6" version="1.1" xmlns="http://www.w3.org/2000/svg" xmlns:xlink="http://www.w3.org/1999/xlink">
    <g id="Main" stroke="none" stroke-width="1" fill="none" fill-rule="evenodd">
        <g class="color-green-darker" id="Front" transform="translate(-332.000000, -58.000000)">
            <g id="Navbar---Front" transform="translate(0.000000, 20.000000)">
                <g id="Options-Button" transform="translate(315.000000, 0.000000)">
                    <path d="M20,44 C21.6568542,44 23,42.6568542 23,41 C23,39.3431458 21.6568542,38 20,38 C18.3431458,38 17,39.3431458 17,41 C17,42.6568542 18.3431458,44 20,44 Z M30,44 C31.6568542,44 33,42.6568542 33,41 C33,39.3431458 31.6568542,38 30,38 C28.3431458,38 27,39.3431458 27,41 C27,42.6568542 28.3431458,44 30,44 Z M40,44 C41.6568542,44 43,42.6568542 43,41 C43,39.3431458 41.6568542,38 40,38 C38.3431458,38 37,39.3431458 37,41 C37,42.6568542 38.3431458,44 40,44 Z" id="svg-dots"></path>
                </g>
            </g>
        </g>
    </g>
</svg>