<?xml version="1.0" encoding="UTF-8" standalone="no"?>
<svg width="28px" height="28px" viewBox="0 0 28 28" version="1.1" xmlns="http://www.w3.org/2000/svg" xmlns:xlink="http://www.w3.org/1999/xlink" xmlns:sketch="http://www.bohemiancoding.com/sketch/ns">
    <!-- Generator: Sketch 3.3.3 (12072) - http://www.bohemiancoding.com/sketch -->
    <title>svg-link</title>
    <desc>Created with Sketch.</desc>
    <defs></defs>
    <g id="Page-1" stroke="none" stroke-width="1" fill="none" fill-rule="evenodd" sketch:type="MSPage">
        <path d="M12.5894397,22.2068966 C12.9773726,21.8189636 13.2279089,21.3556061 13.341056,20.8168103 C13.4542032,20.2780145 13.419182,19.7607783 13.2359914,19.2650862 L15.1594828,17.3577586 C15.7090545,18.2198319 15.9838362,19.1734862 15.9838362,20.21875 C15.9838362,21.6950505 15.4612121,22.9665895 14.4159483,24.0334052 L12.6217672,25.8114224 C11.5549516,26.8566863 10.2834126,27.3793103 8.80711207,27.3793103 C7.33081158,27.3793103 6.0538847,26.8512984 4.9762931,25.7952586 L2.58405172,23.4030172 C1.52801196,22.3577534 1,21.0889083 1,19.596444 C1,18.1039796 1.52801196,16.8297467 2.58405172,15.7737069 L4.36206897,13.9956897 C5.42888464,12.9504258 6.70042365,12.4278017 8.17672414,12.4278017 C9.2327639,12.4278017 10.1971939,12.7079713 11.0700431,13.268319 L9.16271552,15.1756466 C8.82866212,15.0571115 8.50000162,14.9978448 8.17672414,14.9978448 C7.39008227,14.9978448 6.72198551,15.2726266 6.17241379,15.8221983 L4.39439655,17.6002155 C3.84482484,18.1497872 3.5700431,18.8151901 3.5700431,19.596444 C3.5700431,20.3776979 3.84482484,21.0431007 4.39439655,21.5926724 L6.80280172,23.9849138 C7.35237344,24.5344855 8.0204702,24.8092672 8.80711207,24.8092672 C9.59375393,24.8092672 10.2618507,24.5344855 10.8114224,23.9849138 L12.5894397,22.2068966 Z M25.7952586,4.9762931 C26.8512984,6.02155695 27.3793103,7.29040202 27.3793103,8.78286638 C27.3793103,10.2753307 26.8512984,11.5495637 25.7952586,12.6056034 L24.0334052,14.3674569 C22.9773654,15.4234967 21.7058264,15.9515086 20.21875,15.9515086 C19.1734862,15.9515086 18.2198319,15.6767269 17.3577586,15.1271552 L19.2650862,13.2198276 C19.6099155,13.3275867 19.9278003,13.3814655 20.21875,13.3814655 C20.9946159,13.3814655 21.6573248,13.1066838 22.2068966,12.5571121 L23.9849138,10.7790948 C24.5344855,10.2295231 24.8092672,9.56412029 24.8092672,8.78286638 C24.8092672,8.00161247 24.5344855,7.33620964 23.9849138,6.78663793 L21.5926724,4.39439655 C21.0431007,3.84482484 20.3750039,3.5700431 19.5883621,3.5700431 C18.7909443,3.5700431 18.1282354,3.84482484 17.6002155,4.39439655 L15.8221983,6.17241379 C15.2726266,6.70043367 14.9978448,7.36314256 14.9978448,8.16056034 C14.9978448,8.48383782 15.0571115,8.80711045 15.1756466,9.13038793 L13.268319,11.0377155 C12.7079713,10.1756422 12.4278017,9.21660011 12.4278017,8.16056034 C12.4278017,6.68425986 12.9504258,5.41272085 13.9956897,4.34590517 L15.7737069,2.56788793 C16.8405226,1.52262408 18.1120616,1 19.5883621,1 C21.0646626,1 22.3362016,1.52262408 23.4030172,2.56788793 L25.7952586,4.9762931 Z M8.7262931,17.8265086 L17.6810345,8.87176724 L19.5075431,10.6982759 L10.5528017,19.6530172 L8.7262931,17.8265086 Z" id="link" fill="#000000" sketch:type="MSShapeGroup"></path>
    </g>
</svg>