<svg class="svg-twitter" viewBox="0 0 20 20">
  <g class="g-twitter" stroke="none" stroke-width="1" fill="none" fill-rule="evenodd">
    <path fill="#000000" d="M13.8916016,0.791015625 C15.1253317,1.31836201 16.1881466,2.02799033 17.0800781,2.91992188 C17.9720097,3.81185342 18.681638,4.87466831 19.2089844,6.10839844 C19.7363308,7.34212856 20,8.63931611 20,10 C20,11.3606839 19.7363308,12.6578714 19.2089844,13.8916016 C18.681638,15.1253317 17.9720097,16.1881466 17.0800781,17.0800781 C16.1881466,17.9720097 15.1253317,18.681638 13.8916016,19.2089844 C12.6578714,19.7363308 11.3606839,20 10,20 C8.63931611,20 7.34212856,19.7363308 6.10839844,19.2089844 C4.87466831,18.681638 3.81185342,17.9720097 2.91992188,17.0800781 C2.02799033,16.1881466 1.31836201,15.1253317 0.791015625,13.8916016 C0.263669238,12.6578714 0,11.3606839 0,10 C0,8.63931611 0.263669238,7.34212856 0.791015625,6.10839844 C1.31836201,4.87466831 2.02799033,3.81185342 2.91992188,2.91992188 C3.81185342,2.02799033 4.87466831,1.31836201 6.10839844,0.791015625 C7.34212856,0.263669238 8.63931611,0 10,0 C11.3606839,0 12.6578714,0.263669238 13.8916016,0.791015625 Z M16.0839844,7.80273438 C16.5917994,7.44465967 17.0637999,6.9563833 17.5,6.33789062 C16.9726536,6.5592459 16.4257841,6.70898398 15.859375,6.78710938 C16.4583363,6.43554512 16.8652333,5.90820664 17.0800781,5.20507812 C16.5332004,5.53060059 15.9407584,5.76171807 15.3027344,5.8984375 C14.7493462,5.29947617 14.0625041,5 13.2421875,5 C12.4544231,5 11.7871121,5.27668994 11.2402344,5.83007812 C10.6933566,6.38346631 10.4199219,7.0572877 10.4199219,7.8515625 C10.4199219,8.09244912 10.4427081,8.30729072 10.4882812,8.49609375 C9.32291084,8.43749971 8.23079937,8.14453389 7.21191406,7.6171875 C6.19302876,7.08984111 5.32552441,6.38672314 4.609375,5.5078125 C4.36197793,5.97005439 4.23828125,6.44856523 4.23828125,6.94335938 C4.23828125,7.43164307 4.35058481,7.88248491 4.57519531,8.29589844 C4.79980581,8.70931196 5.10416475,9.04622266 5.48828125,9.30664062 C5.03906025,9.30664062 4.61263223,9.1894543 4.20898438,8.95507812 L4.20898438,8.984375 C4.20898438,9.66797217 4.42382598,10.2701797 4.85351562,10.7910156 C5.28320527,11.3118516 5.82681963,11.6438795 6.484375,11.7871094 C6.28255107,11.8457034 6.03515771,11.875 5.7421875,11.875 C5.56640537,11.875 5.3873707,11.8587241 5.20507812,11.8261719 C5.38086025,12.392581 5.7112606,12.8515607 6.19628906,13.203125 C6.68131753,13.5546893 7.23306982,13.7369791 7.8515625,13.75 C6.73827568,14.6158897 5.56315723,15.0488281 4.32617188,15.0488281 C4.22851514,15.0488281 4.00716318,15.0325522 3.66210938,15 C4.94466787,15.8333375 6.39322109,16.25 8.0078125,16.25 C9.01693213,16.25 9.96418828,16.0904964 10.8496094,15.7714844 C11.7350305,15.4524724 12.4918588,15.0244167 13.1201172,14.4873047 C13.7483755,13.9501926 14.2887347,13.3333368 14.7412109,12.6367188 C15.1936872,11.9401007 15.5305979,11.2125689 15.7519531,10.4541016 C15.9733084,9.69563423 16.0839844,8.93555068 16.0839844,8.17382812 L16.0839844,7.80273438 Z"></path>
  </g>
</svg>
