<svg class="svg-coins" width="20px" height="21px" viewBox="0 0 20 21" version="1.1" xmlns="http://www.w3.org/2000/svg" xmlns:xlink="http://www.w3.org/1999/xlink">
  <g class="g-coins" stroke="none" stroke-width="1" fill="none" fill-rule="evenodd">
    <path fill="#000000" d="M19.2366999,2.92858507 C18.2529962,1.94488137 16.6174407,1.12710359 14.1048481,0.617473958 C11.5804036,0.119696181 8.64114439,0.119696181 6.12855179,0.617473958 C3.60410735,1.12710359 1.96855179,1.94488137 0.98484809,2.92858507 C0.00114438657,3.92414063 0.00114438657,4.91969618 0.98484809,5.90339988 C1.96855179,6.89895544 3.60410735,7.71673322 6.12855179,8.214511 C8.64114439,8.72414063 11.5804036,8.72414063 14.1048481,8.214511 C16.6174407,7.71673322 18.2529962,6.89895544 19.2366999,5.90339988 C20.2204036,4.91969618 20.2204036,3.92414063 19.2366999,2.92858507 L19.2366999,2.92858507 Z M18.4544777,8.36858507 C17.3759592,8.91377025 16.1433666,9.34043692 14.7448481,9.63673322 C13.3344777,9.93302951 11.7700333,10.1108073 10.1226259,10.1108073 C6.75669994,10.1108073 3.82929253,9.50636285 1.77892216,8.36858507 C0.795218461,8.97302951 0.261885127,9.73154803 0.261885127,10.4900666 C0.261885127,11.4856221 1.30484809,12.5167332 2.99966291,13.3108073 C4.68262587,14.1167332 7.29003328,14.6619184 10.1226259,14.6619184 C12.9552185,14.6619184 15.5626259,14.1167332 17.2574407,13.3108073 C18.9404036,12.5167332 19.9833666,11.4856221 19.9833666,10.4900666 C19.9833666,9.73154803 19.4500333,8.97302951 18.4663296,8.36858507 L18.4544777,8.36858507 Z M18.4663296,14.4367332 C16.2618851,15.5271036 13.3818851,16.1789554 10.1226259,16.1789554 C6.75669994,16.1789554 3.82929253,15.574511 1.77892216,14.4367332 C0.795218461,15.0411777 0.261885127,15.7996962 0.261885127,16.5582147 C0.261885127,17.5537703 1.30484809,18.5848814 2.99966291,19.3789554 C4.68262587,20.1848814 7.29003328,20.7300666 10.1226259,20.7300666 C12.9552185,20.7300666 15.5626259,20.1848814 17.2574407,19.3789554 C18.9404036,18.5848814 19.9833666,17.5537703 19.9833666,16.5582147 C19.9833666,15.7996962 19.4500333,15.0411777 18.4663296,14.4367332 L18.4663296,14.4367332 Z"></path>
  </g>
</svg>
