<svg class="svg-close" viewBox="0 0 18 18" version="1.1" xmlns="http://www.w3.org/2000/svg" xmlns:xlink="http://www.w3.org/1999/xlink">
    <g id="Main" stroke="none" stroke-width="1" fill="none" fill-rule="evenodd">
        <g class="color-orange" id="Front---Edit" transform="translate(-317.000000, -252.000000)">
            <g id="Main" transform="translate(20.000000, 120.000000)">
                <g id="Card-Results" transform="translate(0.000000, 100.000000)">
                    <path d="M307.414214,41 L309.535534,38.8786797 L308.12132,37.4644661 L306,39.5857864 L303.87868,37.4644661 L302.464466,38.8786797 L304.585786,41 L302.464466,43.1213203 L303.87868,44.5355339 L306,42.4142136 L308.12132,44.5355339 L309.535534,43.1213203 L307.414214,41 Z M306,50 C310.970563,50 315,45.9705627 315,41 C315,36.0294373 310.970563,32 306,32 C301.029437,32 297,36.0294373 297,41 C297,45.9705627 301.029437,50 306,50 Z M306,48 C309.865993,48 313,44.8659932 313,41 C313,37.1340068 309.865993,34 306,34 C302.134007,34 299,37.1340068 299,41 C299,44.8659932 302.134007,48 306,48 Z" id="svg-close"></path>
                </g>
            </g>
        </g>
    </g>
</svg>