<?xml version="1.0" encoding="UTF-8" standalone="no"?>
<svg width="20px" height="20px" viewBox="0 0 20 20" version="1.1" xmlns="http://www.w3.org/2000/svg" xmlns:xlink="http://www.w3.org/1999/xlink" xmlns:sketch="http://www.bohemiancoding.com/sketch/ns">
    <!-- Generator: Sketch 3.3.3 (12072) - http://www.bohemiancoding.com/sketch -->
    <title>svg-globe</title>
    <desc>Created with Sketch.</desc>
    <defs></defs>
    <g id="Page-1" stroke="none" stroke-width="1" fill="none" fill-rule="evenodd" sketch:type="MSPage">
        <path d="M17.0663265,2.93367347 C18.0102088,3.87755574 18.7351165,4.95747691 19.2410714,6.17346939 C19.7470263,7.38946186 20,8.66495931 20,10 C20,11.3350407 19.7470263,12.6105381 19.2410714,13.8265306 C18.7351165,15.0425231 18.0102088,16.1224443 17.0663265,17.0663265 C16.1224443,18.0102088 15.0425231,18.7351165 13.8265306,19.2410714 C12.6105381,19.7470263 11.3350407,20 10,20 C8.66495931,20 7.38946186,19.7470263 6.17346939,19.2410714 C4.95747691,18.7351165 3.87755574,18.0102088 2.93367347,17.0663265 C1.9897912,16.1224443 1.26488348,15.0425231 0.758928571,13.8265306 C0.252973661,12.6105381 0,11.3350407 0,10 C0,8.66495931 0.252973661,7.38946186 0.758928571,6.17346939 C1.26488348,4.95747691 1.9897912,3.87755574 2.93367347,2.93367347 C3.87755574,1.9897912 4.95747691,1.26488348 6.17346939,0.758928571 C7.38946186,0.252973661 8.66495931,0 10,0 C11.3350407,0 12.6105381,0.252973661 13.8265306,0.758928571 C15.0425231,1.26488348 16.1224443,1.9897912 17.0663265,2.93367347 L17.0663265,2.93367347 Z M10.0526176,1.8046875 L10.0264117,1.8046875 C9.79055763,1.82215817 9.52413389,1.99904607 9.22713247,2.33535649 C8.93013106,2.67166692 8.6375017,3.1848602 8.34923562,3.87495172 C7.7814388,5.31628212 7.44950102,7.02838225 7.35341232,9.01130347 L12.7518228,9.01130347 C12.6557341,6.99344091 12.3237964,5.28134078 11.7559995,3.87495172 L11.664279,3.69151059 C12.6339012,3.92736465 13.5117893,4.3728601 14.2979695,5.02801028 C14.5949709,6.24222195 14.7784102,7.56997307 14.8482929,9.01130347 L18.2419539,9.01130347 C17.9973645,7.13320628 17.2155637,5.53466381 15.896528,4.21562811 C15.1190831,3.43818323 14.2259084,2.84200551 13.2169771,2.42707706 C12.2080459,2.01214861 11.1532699,1.8046875 10.0526176,1.8046875 L10.0526176,1.8046875 Z M10.0526176,18.3143895 C10.2797363,18.3143895 10.5483439,18.1462368 10.8584483,17.8099264 C11.1685527,17.473616 11.4677335,16.9516875 11.7559995,16.2441253 C12.3237964,14.8377363 12.6557341,13.1256361 12.7518228,11.1077736 L7.35341232,11.1077736 C7.44950102,13.0906948 7.7814388,14.8027949 8.34923562,16.2441253 C8.6375017,16.9516875 8.93668246,17.473616 9.24678688,17.8099264 C9.5568913,18.1462368 9.82549885,18.3143895 10.0526176,18.3143895 L10.0526176,18.3143895 Z M4.20870717,4.21562811 C2.88967147,5.53466381 2.10787065,7.13320628 1.86328125,9.01130347 L5.25694222,9.01130347 C5.35303092,6.75758684 5.73737992,4.80090098 6.41000078,3.14118719 C6.51482481,2.87912712 6.61091206,2.6694822 6.69826542,2.51224616 C5.75484916,2.94027761 4.92500471,3.50806592 4.20870717,4.21562811 L4.20870717,4.21562811 Z M1.86328125,11.1077736 C2.10787065,12.9858708 2.88967147,14.5844132 4.20870717,15.9034489 C4.95994605,16.6372171 5.7897905,17.2006378 6.69826542,17.5937279 C6.6196474,17.4452272 6.52356014,17.2399499 6.41000078,16.9778898 C5.73737992,15.3181761 5.35303092,13.3614902 5.25694222,11.1077736 L1.86328125,11.1077736 Z M15.896528,15.9034489 C17.2155637,14.5844132 17.9973645,12.9858708 18.2419539,11.1077736 L14.8482929,11.1077736 C14.7522042,13.3614902 14.3678552,15.3181761 13.6952344,16.9778898 C13.581675,17.2399499 13.4855878,17.4452272 13.4069697,17.5937279 C14.3154447,17.2006378 15.1452891,16.6372171 15.896528,15.9034489 L15.896528,15.9034489 Z" id="globe" fill="#000000" sketch:type="MSShapeGroup"></path>
    </g>
</svg>