<svg class="svg-globe" viewBox="0 0 20 20" version="1.1" xmlns="http://www.w3.org/2000/svg" xmlns:xlink="http://www.w3.org/1999/xlink">
    <g id="Main" stroke="none" stroke-width="1" fill="none" fill-rule="evenodd">
        <g class="color-green" id="Front" transform="translate(-50.000000, -451.000000)">
            <g id="Main" transform="translate(20.000000, 120.000000)">
                <g id="Card-Results" transform="translate(0.000000, 300.000000)">
                    <g id="CurSymbol" transform="translate(10.000000, 10.000000)">
                        <path d="M37.0663265,23.9336735 C38.0102088,24.8775557 38.7351165,25.9574769 39.2410714,27.1734694 C39.7470263,28.3894619 40,29.6649593 40,31 C40,32.3350407 39.7470263,33.6105381 39.2410714,34.8265306 C38.7351165,36.0425231 38.0102088,37.1224443 37.0663265,38.0663265 C36.1224443,39.0102088 35.0425231,39.7351165 33.8265306,40.2410714 C32.6105381,40.7470263 31.3350407,41 30,41 C28.6649593,41 27.3894619,40.7470263 26.1734694,40.2410714 C24.9574769,39.7351165 23.8775557,39.0102088 22.9336735,38.0663265 C21.9897912,37.1224443 21.2648835,36.0425231 20.7589286,34.8265306 C20.2529737,33.6105381 20,32.3350407 20,31 C20,29.6649593 20.2529737,28.3894619 20.7589286,27.1734694 C21.2648835,25.9574769 21.9897912,24.8775557 22.9336735,23.9336735 C23.8775557,22.9897912 24.9574769,22.2648835 26.1734694,21.7589286 C27.3894619,21.2529737 28.6649593,21 30,21 C31.3350407,21 32.6105381,21.2529737 33.8265306,21.7589286 C35.0425231,22.2648835 36.1224443,22.9897912 37.0663265,23.9336735 L37.0663265,23.9336735 Z M30.0526176,22.8046875 L30.0264117,22.8046875 C29.7905576,22.8221582 29.5241339,22.9990461 29.2271325,23.3353565 C28.9301311,23.6716669 28.6375017,24.1848602 28.3492356,24.8749517 C27.7814388,26.3162821 27.449501,28.0283822 27.3534123,30.0113035 L32.7518228,30.0113035 C32.6557341,27.9934409 32.3237964,26.2813408 31.7559995,24.8749517 L31.664279,24.6915106 C32.6339012,24.9273647 33.5117893,25.3728601 34.2979695,26.0280103 C34.5949709,27.2422219 34.7784102,28.5699731 34.8482929,30.0113035 L38.2419539,30.0113035 C37.9973645,28.1332063 37.2155637,26.5346638 35.896528,25.2156281 C35.1190831,24.4381832 34.2259084,23.8420055 33.2169771,23.4270771 C32.2080459,23.0121486 31.1532699,22.8046875 30.0526176,22.8046875 L30.0526176,22.8046875 Z M30.0526176,39.3143895 C30.2797363,39.3143895 30.5483439,39.1462368 30.8584483,38.8099264 C31.1685527,38.473616 31.4677335,37.9516875 31.7559995,37.2441253 C32.3237964,35.8377363 32.6557341,34.1256361 32.7518228,32.1077736 L27.3534123,32.1077736 C27.449501,34.0906948 27.7814388,35.8027949 28.3492356,37.2441253 C28.6375017,37.9516875 28.9366825,38.473616 29.2467869,38.8099264 C29.5568913,39.1462368 29.8254988,39.3143895 30.0526176,39.3143895 L30.0526176,39.3143895 Z M24.2087072,25.2156281 C22.8896715,26.5346638 22.1078707,28.1332063 21.8632812,30.0113035 L25.2569422,30.0113035 C25.3530309,27.7575868 25.7373799,25.800901 26.4100008,24.1411872 C26.5148248,23.8791271 26.6109121,23.6694822 26.6982654,23.5122462 C25.7548492,23.9402776 24.9250047,24.5080659 24.2087072,25.2156281 L24.2087072,25.2156281 Z M21.8632812,32.1077736 C22.1078707,33.9858708 22.8896715,35.5844132 24.2087072,36.9034489 C24.959946,37.6372171 25.7897905,38.2006378 26.6982654,38.5937279 C26.6196474,38.4452272 26.5235601,38.2399499 26.4100008,37.9778898 C25.7373799,36.3181761 25.3530309,34.3614902 25.2569422,32.1077736 L21.8632812,32.1077736 Z M35.896528,36.9034489 C37.2155637,35.5844132 37.9973645,33.9858708 38.2419539,32.1077736 L34.8482929,32.1077736 C34.7522042,34.3614902 34.3678552,36.3181761 33.6952344,37.9778898 C33.581675,38.2399499 33.4855878,38.4452272 33.4069697,38.5937279 C34.3154447,38.2006378 35.1452891,37.6372171 35.896528,36.9034489 L35.896528,36.9034489 Z" id="svg-globe"></path>
                    </g>
                </g>
            </g>
        </g>
    </g>
</svg>