<svg class="svg-code" viewBox="0 0 30 21" version="1.1" xmlns="http://www.w3.org/2000/svg" xmlns:xlink="http://www.w3.org/1999/xlink">
  <g class="g-code" stroke="none" stroke-width="1" fill="none" fill-rule="evenodd">
    <path fill="#000000" d="M8.5839825,17.5282824 C8.7792975,17.5282824 8.97460875,17.4893937 9.16992,17.4116157 C9.365235,17.3338377 9.54101625,17.2074498 9.6972675,17.0324509 C9.97070625,16.7213373 10.097655,16.3616194 10.078125,15.9532824 C10.058595,15.5449453 9.89257875,15.2046744 9.58008,14.9324509 L4.51171875,10.4407805 L9.9902325,5.59911756 C10.302735,5.32689036 10.4736337,4.9817549 10.5029288,4.56369996 C10.5322275,4.1456413 10.4003925,3.78106263 10.10742,3.46994903 C9.83398125,3.15883543 9.49219125,2.99356076 9.08203125,2.97411383 C8.67187125,2.95467063 8.3105475,3.0810589 7.998045,3.35328236 L0,10.4407805 L7.5878925,17.1491176 C7.72461,17.2852274 7.8808575,17.3824487 8.0566425,17.4407824 C8.23242375,17.4991161 8.40820125,17.5282824 8.5839825,17.5282824 L8.5839825,17.5282824 Z M22.001955,17.5282824 L30,10.4407805 L22.4121075,3.7324509 C22.0996088,3.4602237 21.738285,3.33383916 21.328125,3.35328236 C20.917965,3.37272556 20.576175,3.53800396 20.3027325,3.84911756 C20.0292938,4.16022743 19.902345,4.5199453 19.921875,4.92828236 C19.941405,5.33661943 20.1074213,5.67689036 20.41992,5.94911756 L25.4882813,10.4407805 L20.0097675,15.3116157 C19.697265,15.5838392 19.5263663,15.9241138 19.4970713,16.3324509 C19.4677725,16.7407842 19.5996075,17.1005021 19.89258,17.4116157 C20.0292975,17.5866164 20.19531,17.7130043 20.390625,17.7907824 C20.58594,17.8685604 20.7910163,17.907449 21.0058575,17.907449 C21.1816425,17.907449 21.35742,17.8782827 21.533205,17.819949 C21.7089863,17.7616153 21.8652338,17.6643941 22.001955,17.5282824 L22.001955,17.5282824 Z M14.970705,19.657449 L17.9882813,1.71994903 C18.046875,1.3310589 17.9589863,0.96648023 17.7246075,0.626198097 C17.4902325,0.285919697 17.1679725,0.086615697 16.7578125,0.0282823637 C16.3476525,-0.0494941696 15.9716813,0.0331431637 15.6298837,0.276198097 C15.2880825,0.519256764 15.0878925,0.844945297 15.029295,1.25328236 L12.0117188,19.1616157 C11.953125,19.5699509 12.0410138,19.9393919 12.2753925,20.269949 C12.5097675,20.6005062 12.8320275,20.8046709 13.2421875,20.882449 C13.3007812,20.882449 13.34961,20.8873101 13.38867,20.8970324 C13.4277338,20.9067546 13.4667975,20.9116157 13.5058575,20.9116157 C13.8574238,20.9116157 14.174805,20.7949502 14.4580088,20.5616157 C14.7412125,20.3282812 14.9121075,20.0268952 14.970705,19.657449 L14.970705,19.657449 Z"></path>
  </g>
</svg>
