<?xml version="1.0" encoding="UTF-8" standalone="no"?>
<svg width="18px" height="15px" viewBox="0 0 18 15" version="1.1" xmlns="http://www.w3.org/2000/svg" xmlns:xlink="http://www.w3.org/1999/xlink" xmlns:sketch="http://www.bohemiancoding.com/sketch/ns">
    <!-- Generator: Sketch 3.3.3 (12072) - http://www.bohemiancoding.com/sketch -->
    <title>svg-github</title>
    <desc>Created with Sketch.</desc>
    <defs></defs>
    <g id="Page-1" stroke="none" stroke-width="1" fill="none" fill-rule="evenodd" sketch:type="MSPage">
        <path d="M16.6904297,4.07884923 C16.875,3.10309004 17.0595703,1.35375599 16.4970703,0 C14.7304688,0.140649973 13.3505859,0.97575919 12.5595703,1.5823122 C11.4960938,1.29222163 10.2919922,1.12519979 9,1.12519979 C7.70800781,1.12519979 6.50390625,1.29222163 5.4140625,1.5823122 C4.64941406,0.97575919 3.26953125,0.140649973 1.50292969,0 C0.940429688,1.37133724 1.125,3.10309004 1.30957031,4.1052211 C0.483398438,5.1249334 0,6.41715503 0,7.87639851 C0,13.1244006 3.375,14.9968034 9,14.9968034 C14.625,14.9968034 18,13.1244006 18,7.85002664 C18,6.39078316 17.5166016,5.1249334 16.6904297,4.07884923 L16.6904297,4.07884923 Z M9,13.8716036 C4.12207031,13.8716036 2.37304688,12.3771977 2.37304688,10.1267981 C2.37304688,7.4984017 4.5,6.93580181 5.625,6.93580181 C6.75,6.93580181 6.75,7.1204049 9,7.1204049 C11.25,7.1204049 11.25,6.93580181 12.375,6.93580181 C13.5,6.93580181 15.6269531,7.4984017 15.6269531,10.1267981 C15.6269531,12.3771977 13.8779297,13.8716036 9,13.8716036 L9,13.8716036 Z M12.7529297,10.3114012 C12.7529297,9.0015983 12.3310547,8.62360149 11.8125,8.62360149 C11.2939453,8.62360149 10.8720703,9.0015983 10.8720703,10.3114012 C10.8720703,11.621204 11.2939453,11.9992009 11.8125,11.9992009 C12.3310547,11.9992009 12.7529297,11.621204 12.7529297,10.3114012 L12.7529297,10.3114012 Z M7.12792969,10.3114012 C7.12792969,9.0015983 6.70605469,8.62360149 6.1875,8.62360149 C5.66894531,8.62360149 5.24707031,9.0015983 5.24707031,10.3114012 C5.24707031,11.621204 5.66894531,11.9992009 6.1875,11.9992009 C6.70605469,11.9992009 7.12792969,11.621204 7.12792969,10.3114012 L7.12792969,10.3114012 Z" id="octocat" fill="#000000" sketch:type="MSShapeGroup"></path>
    </g>
</svg>