<svg class="svg-stopwatch" width="21px" height="24px" viewBox="0 0 21 24" version="1.1" xmlns="http://www.w3.org/2000/svg" xmlns:xlink="http://www.w3.org/1999/xlink">
  <g class="g-stopwatch" stroke="none" stroke-width="1" fill="none" fill-rule="evenodd">
    <path fill="#000000" d="M19.379778,6.15234375 C18.7630665,5.54296875 17.8617187,5.54296875 17.256867,6.15234375 L16.5689964,6.8203125 C15.0627969,5.578125 13.4617187,4.8515625 11.7183225,4.65234375 L11.7183225,3 L14.7544411,3 C15.5964896,3 16.2725004,2.33203125 16.2725004,1.5 C16.2725004,0.66796875 15.5964896,0 14.7544411,0 L5.5749263,0 C4.73287778,0 4.056867,0.66796875 4.056867,1.5 C4.056867,2.33203125 4.73287778,3 5.5749263,3 L8.6110449,3 L8.6110449,4.5703125 C6.27465676,4.9453125 4.16360554,6.1640625 2.66926592,7.86328125 C1.1749263,9.5625 0.26171875,11.8476562 0.26171875,14.25 C0.26171875,16.921875 1.36468371,19.40625 3.14365945,21.1523438 C4.91077535,22.9101562 7.42506107,24 10.1291042,24 C12.8331473,24 15.347433,22.9101562 17.1264088,21.1523438 C18.8935247,19.40625 19.9964896,16.921875 19.9964896,14.25 C19.9964896,12.8085938 19.747433,11.5664062 19.23746,10.5 L20.4471635,9.3046875 C21.0638751,8.6953125 21.0638751,7.81640625 20.4471635,7.20703125 L19.379778,6.15234375 Z M8.6110449,14.859375 L8.6110449,7.51171875 L11.6471635,7.51171875 L11.6471635,13.6640625 L15.7506675,17.7070312 L13.6158966,19.8164062 L8.6110449,14.859375 Z"></path>
  </g>
</svg>
