<svg class="svg-add" viewBox="0 0 20 20">
  <g class="g-add" stroke="none" stroke-width="1" fill="none" fill-rule="evenodd">
    <path fill="#000000" d="M8.88888889,8.88888889 L5.55555556,8.88888889 L5.55555556,11.1111111 L8.88888889,11.1111111 L8.88888889,14.4444444 L11.1111111,14.4444444 L11.1111111,11.1111111 L14.4444444,11.1111111 L14.4444444,8.88888889 L11.1111111,8.88888889 L11.1111111,5.55555556 L8.88888889,5.55555556 L8.88888889,8.88888889 Z M10,20 C15.5228475,20 20,15.5228475 20,10 C20,4.4771525 15.5228475,0 10,0 C4.4771525,0 0,4.4771525 0,10 C0,15.5228475 4.4771525,20 10,20 Z M10,17.7777778 C14.2955481,17.7777778 17.7777778,14.2955481 17.7777778,10 C17.7777778,5.70445195 14.2955481,2.22222222 10,2.22222222 C5.70445195,2.22222222 2.22222222,5.70445195 2.22222222,10 C2.22222222,14.2955481 5.70445195,17.7777778 10,17.7777778 Z"></path>
  </g>
</svg>
