<svg class="svg-airplane" width="24px" height="24px" viewBox="0 0 24 24" version="1.1" xmlns="http://www.w3.org/2000/svg" xmlns:xlink="http://www.w3.org/1999/xlink">
  <g class="g-airplane" stroke="none" stroke-width="1" fill="none" fill-rule="evenodd">
    <path fill="#000000" d="M23.1786401,12.1523438 L14.7655676,7.34765625 L14.9885082,4.5 C14.9885082,3.66796875 14.6364968,2.5546875 14.1202134,1.62890625 C13.5804626,0.703125 12.7708363,0 11.9846775,0 C11.1985187,0 10.3771588,0.703125 9.86087542,1.62890625 C9.32112461,2.5546875 8.98084692,3.66796875 8.98084692,4.5 L9.20378747,7.34765625 L0.720312725,12.2226562 C0.133627058,12.515625 -0.101047209,13.1835938 0.0397573508,13.875 C0.192295624,14.5546875 0.778981291,15 1.47127038,15 L9.95474513,15 L10.4827622,21 L8.98084692,21 C8.14775327,21 7.47893161,21.6679688 7.47893161,22.5 C7.47893161,23.3320312 8.14775327,24 8.98084692,24 L14.9885082,24 C15.8216018,24 16.4904235,23.3320312 16.4904235,22.5 C16.4904235,21.6679688 15.8216018,21 14.9885082,21 L13.4865928,21 L14.0146099,15 L22.4980847,15 C23.3311783,15 24,14.3320312 24,13.5 C24,12.9140625 23.6479886,12.3867188 23.1786401,12.1523438 L23.1786401,12.1523438 Z"></path>
  </g>
</svg>
