<?xml version="1.0" encoding="UTF-8" standalone="no"?>
<svg width="20px" height="20px" viewBox="0 0 20 20" version="1.1" xmlns="http://www.w3.org/2000/svg" xmlns:xlink="http://www.w3.org/1999/xlink" xmlns:sketch="http://www.bohemiancoding.com/sketch/ns">
    <!-- Generator: Sketch 3.3.3 (12072) - http://www.bohemiancoding.com/sketch -->
    <title>facebook</title>
    <desc>Created with Sketch.</desc>
    <defs></defs>
    <g id="Page-1" stroke="none" stroke-width="1" fill="none" fill-rule="evenodd" sketch:type="MSPage">
        <path d="M19.0283203,14.3115234 C18.3805306,15.6624417 17.4886125,16.8033808 16.3525391,17.734375 C15.2164657,18.6653692 13.9322988,19.3164044 12.5,19.6875 L12.5,12.0800781 L14.6386719,12.0800781 L15,9.58007812 L12.5,9.58007812 L12.5,7.3828125 C12.5,6.62760039 12.8645797,6.25 13.59375,6.25 L15.1855469,6.25 L15.1855469,3.92578125 C14.6907527,3.81510361 14.0918004,3.75976562 13.3886719,3.75976562 C12.216791,3.75976562 11.3216177,4.05761421 10.703125,4.65332031 C10.0846323,5.24902642 9.77539062,6.0579376 9.77539062,7.08007812 L9.77539062,9.58007812 L7.5,9.58007812 L7.5,12.0800781 L9.77539062,12.0800781 L9.77539062,20 C8.44074854,19.9739582 7.17122998,19.6907579 5.96679688,19.1503906 C4.76236377,18.6100233 3.7239627,17.8955123 2.8515625,17.0068359 C1.9791623,16.1181596 1.28580986,15.0634827 0.771484375,13.8427734 C0.257158887,12.6220642 0,11.3411525 0,10 C0,8.64582656 0.263669238,7.35189419 0.791015625,6.11816406 C1.31836201,4.88443394 2.02961792,3.81999146 2.92480469,2.92480469 C3.81999146,2.02961792 4.88443394,1.31836201 6.11816406,0.791015625 C7.35189419,0.263669238 8.64582656,0 10,0 C11.3541734,0 12.6481058,0.263669238 13.8818359,0.791015625 C15.1155661,1.31836201 16.1800085,2.02961792 17.0751953,2.92480469 C17.9703821,3.81999146 18.681638,4.88443394 19.2089844,6.11816406 C19.7363308,7.35189419 20,8.64582656 20,10 C20,11.5234451 19.67611,12.9606052 19.0283203,14.3115234 Z" id="facebook" fill="#000000" sketch:type="MSShapeGroup"></path>
    </g>
</svg>