<svg class="svg-calculator" viewBox="0 0 16 24" version="1.1" xmlns="http://www.w3.org/2000/svg" xmlns:xlink="http://www.w3.org/1999/xlink">
  <g class="g-calculator" stroke="none" stroke-width="1" fill="none" fill-rule="evenodd">
    <path fill="#000000" d="M2.90909091,0 C1.29545455,0 0,1.3359375 0,3 L0,21 C0,22.6640625 1.29545455,24 2.90909091,24 L13.0909091,24 C14.7045455,24 16,22.6640625 16,21 L16,3 C16,1.3359375 14.7045455,0 13.0909091,0 L2.90909091,0 Z M13.5,3 L13.5,7.5 L3,7.5 L3,3 L13.5,3 Z M11.6953125,12.3046875 C11.0976562,11.71875 11.0976562,10.7695312 11.6953125,10.171875 C12.28125,9.5859375 13.2304688,9.5859375 13.828125,10.171875 C14.4140625,10.7695312 14.4140625,11.71875 13.828125,12.3046875 C13.2304688,12.9023438 12.28125,12.9023438 11.6953125,12.3046875 L11.6953125,12.3046875 Z M7.1953125,12.3046875 C6.59765625,11.71875 6.59765625,10.7695312 7.1953125,10.171875 C7.78125,9.5859375 8.71875,9.5859375 9.31640625,10.171875 C9.90234375,10.7695312 9.90234375,11.71875 9.31640625,12.3046875 C8.71875,12.9023438 7.78125,12.9023438 7.1953125,12.3046875 L7.1953125,12.3046875 Z M2.6953125,12.3046875 C2.09765625,11.71875 2.09765625,10.7695312 2.6953125,10.171875 C3.28125,9.5859375 4.23046875,9.5859375 4.828125,10.171875 C5.4140625,10.7695312 5.4140625,11.71875 4.828125,12.3046875 C4.23046875,12.9023438 3.28125,12.9023438 2.6953125,12.3046875 L2.6953125,12.3046875 Z M11.6953125,16.8046875 C11.0976562,16.21875 11.0976562,15.2695312 11.6953125,14.671875 C12.28125,14.0859375 13.2304688,14.0859375 13.828125,14.671875 C14.4140625,15.2695312 14.4140625,16.21875 13.828125,16.8046875 C13.2304688,17.4023438 12.28125,17.4023438 11.6953125,16.8046875 L11.6953125,16.8046875 Z M7.1953125,16.8046875 C6.59765625,16.21875 6.59765625,15.2695312 7.1953125,14.671875 C7.78125,14.0859375 8.71875,14.0859375 9.31640625,14.671875 C9.90234375,15.2695312 9.90234375,16.21875 9.31640625,16.8046875 C8.71875,17.4023438 7.78125,17.4023438 7.1953125,16.8046875 L7.1953125,16.8046875 Z M2.6953125,16.8046875 C2.09765625,16.21875 2.09765625,15.2695312 2.6953125,14.671875 C3.28125,14.0859375 4.23046875,14.0859375 4.828125,14.671875 C5.4140625,15.2695312 5.4140625,16.21875 4.828125,16.8046875 C4.23046875,17.4023438 3.28125,17.4023438 2.6953125,16.8046875 L2.6953125,16.8046875 Z M11.6953125,21.3046875 C11.0976562,20.71875 11.0976562,19.7695312 11.6953125,19.171875 C12.28125,18.5859375 13.2304688,18.5859375 13.828125,19.171875 C14.4140625,19.7695312 14.4140625,20.71875 13.828125,21.3046875 C13.2304688,21.9023438 12.28125,21.9023438 11.6953125,21.3046875 L11.6953125,21.3046875 Z M7.1953125,21.3046875 C6.59765625,20.71875 6.59765625,19.7695312 7.1953125,19.171875 C7.78125,18.5859375 8.71875,18.5859375 9.31640625,19.171875 C9.90234375,19.7695312 9.90234375,20.71875 9.31640625,21.3046875 C8.71875,21.9023438 7.78125,21.9023438 7.1953125,21.3046875 L7.1953125,21.3046875 Z M2.6953125,21.3046875 C2.09765625,20.71875 2.09765625,19.7695312 2.6953125,19.171875 C3.28125,18.5859375 4.23046875,18.5859375 4.828125,19.171875 C5.4140625,19.7695312 5.4140625,20.71875 4.828125,21.3046875 C4.23046875,21.9023438 3.28125,21.9023438 2.6953125,21.3046875 L2.6953125,21.3046875 Z"></path>
  </g>
</svg>
