<?xml version="1.0" encoding="UTF-8" standalone="no"?>
<svg width="16px" height="16px" viewBox="0 0 16 16" version="1.1" xmlns="http://www.w3.org/2000/svg" xmlns:xlink="http://www.w3.org/1999/xlink" xmlns:sketch="http://www.bohemiancoding.com/sketch/ns">
    <!-- Generator: Sketch 3.4 (15575) - http://www.bohemiancoding.com/sketch -->
    <title>mask-icon</title>
    <desc>Created with Sketch.</desc>
    <defs></defs>
    <g id="Page-1" stroke="none" stroke-width="1" fill="none" fill-rule="evenodd" sketch:type="MSPage">
        <path d="M9.95679154,6.5 L4.5,6.5 L4.5,4.5 L9.95679154,4.5 L9.95679154,3.42231182 L12.6230666,5.50072331 L9.95679154,7.57913481 L9.95679154,6.5 Z M6.0462761,11.5 L11.5,11.5 L11.5,9.5 L6.0462761,9.5 L6.0462761,8.42393189 L3.38000107,10.5023434 L6.0462761,12.5807549 L6.0462761,11.5 Z M8,16 C12.4182782,16 16,12.4182782 16,8 C16,3.58172178 12.4182782,0 8,0 C3.58172178,0 0,3.58172178 0,8 C0,12.4182782 3.58172178,16 8,16 Z" id="circle-copy-2" fill="#000000" sketch:type="MSShapeGroup"></path>
    </g>
</svg>